<?xml version="1.0" encoding="utf-8"?>
<!-- Generator: Adobe Illustrator 24.3.0, SVG Export Plug-In . SVG Version: 6.00 Build 0)  -->
<svg version="1.1" id="Layer_1" focusable="false" xmlns="http://www.w3.org/2000/svg" xmlns:xlink="http://www.w3.org/1999/xlink"
	 x="0px" y="0px" viewBox="0 0 414.5 408.7" style="enable-background:new 0 0 414.5 408.7;" xml:space="preserve">
<style type="text/css">
	.st0{opacity:0.42;enable-background:new    ;}
</style>
<g>
	<path d="M146.1,403c0,0.9-1.4,1.7-4.2,2.4c-7.2,2.2-20.3,3.3-39.3,3.3c-25.2,0-44.1-3.7-56.7-11.2c-16.1-9.5-24.2-26.2-24.2-50.1
		c0-8.2,3.9-23.3,11.6-45.4c7.8-22,11.6-36.9,11.6-44.5c0-9.5-4.3-17.3-12.7-23.3c-7.8-5.3-16.6-7.9-26.4-7.9c-4,0-5.9-1.5-5.9-4.4
		c0-1.9,0.5-4.8,1.4-8.7c1-3.9,1.4-6.8,1.4-8.9c0-2-0.5-5-1.4-8.9c-1-3.9-1.4-6.8-1.4-8.7c0-2.9,2-4.4,5.9-4.4
		c10,0,18.9-2.8,26.8-8.3c8.8-6.2,13.2-14.1,13.2-23.7c0-7.3-4-22-12.1-43.9c-8.1-22-12.1-37-12.1-45c0-23.9,8.1-40.6,24.2-50.1
		C58.4,3.7,77.3,0,102.6,0c19,0,32.2,1,39.3,3.1c2.8,0.9,4.2,1.8,4.2,2.6c0,2.5-0.4,6.3-1.2,11.3c-0.8,5.1-1.2,8.8-1.2,11.3
		c0,2.3,0.1,5.8,0.2,10.4c0.1,4.6,0.2,8,0.2,10.2c0,3.4-1.7,5.1-5.1,5.1c-4,0-9.9-0.5-17.9-1.5S107.1,51,103,51
		c-10.3,0-15.4,7.5-15.4,22.4c0,7,2.6,18.9,7.9,35.6s7.9,29,7.9,36.9c0,11.4-2.5,23.2-7.5,35.4c-6.4,15.4-14.7,23.1-24.8,23.1
		c10,0,18.5,5.4,25.7,16.3c6.4,9.8,9.7,19.9,9.7,30.1c0,9.2-3.2,23.8-9.4,43.8c-6.3,20-9.4,33.9-9.4,41.9c0,15.5,5.6,23.3,16.9,23.3
		c4.1,0,10.3-0.9,18.5-2.6c8.2-1.8,14.2-2.6,18-2.6c2.3,0,3.5,1.8,3.5,5.3c0,2.3-0.2,5.9-0.7,10.7c-0.4,4.8-0.7,8.4-0.7,10.9
		s0.5,6.2,1.4,11C145.6,397,146.1,400.6,146.1,403z"/>
	<path class="st0" d="M414.5,221.9c0,2.9-1.9,4.4-5.7,4.4c-10,0-18.8,2.6-26.4,7.9c-8.5,6-12.7,13.8-12.7,23.3
		c0,7.6,3.9,22.5,11.6,44.5c7.8,22,11.6,37.2,11.6,45.4c0,23.9-8.1,40.6-24.2,50.1c-12.6,7.5-31.6,11.2-56.9,11.2
		c-18.9,0-31.9-1.1-39.1-3.3c-2.8-0.7-4.2-1.5-4.2-2.4c0-2.3,0.5-5.9,1.4-10.8c1-4.8,1.4-8.5,1.4-11s-0.2-6.1-0.7-10.9
		c-0.4-4.8-0.7-8.3-0.7-10.7c0-3.5,1.2-5.3,3.5-5.3c3.8,0,9.8,0.9,18,2.6c8.2,1.8,14.4,2.6,18.5,2.6c11.3,0,16.9-7.8,16.9-23.3
		c0-7.9-3.2-21.9-9.6-41.9s-9.6-34.6-9.6-43.8c0-10.3,3.3-20.3,9.9-30.1c7.2-10.8,15.7-16.3,25.7-16.3c-10.1,0-18.4-7.7-24.8-23.1
		c-5.1-12.2-7.7-24-7.7-35.4c0-7.9,2.7-20.2,8-36.9s8-28.6,8-35.6c0-14.9-5.2-22.4-15.6-22.4c-4,0-9.9,0.5-17.9,1.5
		s-14,1.5-18.1,1.5c-3.2,0-4.8-1.7-4.8-5.1c0-2.2,0.1-5.6,0.2-10.2s0.2-8.1,0.2-10.4c0-2.5-0.4-6.3-1.2-11.3
		c-0.8-5.1-1.2-8.8-1.2-11.3c0-0.9,1.4-1.8,4.2-2.6C279.9,1,293,0,311.9,0c25.5,0,44.5,3.7,56.9,11.2c16.1,9.5,24.2,26.2,24.2,50.1
		c0,8.1-4.1,23.1-12.2,45c-8.1,22-12.2,36.6-12.2,43.9c0,9.7,4.5,17.6,13.4,23.7c7.9,5.6,16.8,8.3,26.8,8.3c3.8,0,5.7,1.5,5.7,4.4
		c0,1.9-0.4,4.8-1.3,8.7s-1.3,6.8-1.3,8.9c0,2.1,0.4,5,1.3,8.9C414,217.1,414.5,220,414.5,221.9z"/>
</g>
</svg>
