<?xml version="1.0" encoding="utf-8"?>
<!-- Generator: Adobe Illustrator 24.3.0, SVG Export Plug-In . SVG Version: 6.00 Build 0)  -->
<svg version="1.1" id="Layer_1" xmlns="http://www.w3.org/2000/svg" xmlns:xlink="http://www.w3.org/1999/xlink" x="0px" y="0px"
	 viewBox="0 0 606.8 631.3" style="enable-background:new 0 0 606.8 631.3;" xml:space="preserve">
<style type="text/css">
	.st0{fill:#EA4C89;}
	.st1{fill:#D90F6D;}
	.st2{fill:#FF6759;}
</style>
<g id="Group_1" transform="translate(-765.23 -172.008)">
	<g transform="matrix(1, 0, 0, 1, 765.23, 172.01)">
		<circle id="Ellipse_1-2" class="st0" cx="456.6" cy="311.3" r="150.3"/>
	</g>
	<circle id="Ellipse_2" class="st1" cx="1223.3" cy="478.6" r="86.9"/>
	<circle id="Ellipse_3" class="st1" cx="1292" cy="251.9" r="79"/>
	<circle id="Ellipse_4" class="st2" cx="1223.3" cy="478.6" r="19"/>
	<path id="Path_1" class="st1" d="M895.2,172c0,83.2,67.4,150.6,150.6,150.6V172H895.2z"/>
	<path id="Path_2" class="st0" d="M1045.9,322.6h150.6v0c0-83.2-67.4-150.6-150.6-150.6V322.6z"/>
	<path id="Path_3" class="st1" d="M765.2,496.8c0,83.2,67.4,150.6,150.6,150.6V496.8H765.2z"/>
	<path id="Path_4" class="st0" d="M915.9,647.4h150.6l0,0c0-83.2-67.4-150.6-150.6-150.6V647.4z"/>
	<path id="Path_5" class="st0" d="M1066.5,803.4H915.9l0,0c0-83.2,67.4-150.6,150.6-150.6V803.4z"/>
	<path id="Path_6" class="st0" d="M1220.3,803.2c-83,0-150.3-67.3-150.3-150.3h300.6C1370.6,735.9,1303.3,803.2,1220.3,803.2z"/>
</g>
</svg>
